# xmcd
#
# Track frame offsets:
#	150
#	22100
#	39683
#	52748
#	73713
#	89378
#	106967
#	124182
#	140780
#	156034
#	175198
#	187105
#	209356
#	232848
#	248274
#	263516
#	278113
#	294914
#	309121
#	325791
#	340457
#	359284
#
# Disc length: 4990 seconds
#
# Revision: 0
# Processed by: cddbd v1.5.2PL0 Copyright (c) Steve Scherf et al.
# Submitted via: EasyCDDAExtractor 16.1.0.1
#
DISCID=3a137c16
DTITLE=Various Artist - NOW Thats What I Call Music 85
DYEAR=1900
DGENRE=
TTITLE0=Rudimental featuring Ella Eyre - Waiting All Night
TTITLE1=Jessie J featuring Big Sean and - Wild
TTITLE2=Duke Dumont featuring A*M*E - Need U (100%)
TTITLE3=will.i.am featuring Justin Bie - #thatPOWER
TTITLE4=David Guetta featuring Ne-Yo and - Play Hard
TTITLE5=Calvin Harris featuring Ellie - I Need Your Love
TTITLE6=Pitbull featuring Christina Ag - Feel This Moment
TTITLE7=Sebastian Ingrosso and Tommy Tra - Reload
TTITLE8=Armin van Buuren featuring Tre - This Is What It Feels Like
TTITLE9=Chase and Status featuring Louis - Lost and Not Found
TTITLE10=Chris Malinchak - So Good To Me
TTITLE11=Disclosure featuring Eliza Doolittle - 12. You and Me
TTITLE12=Breach - 13. Jack
TTITLE13=Wiley featuring Angel and Tinchy Stryder - Lights On
TTITLE14=Dizzee Rascal featuring Robbie - Goin' Crazy
TTITLE15=Psy - Gentleman
TTITLE16=The 1975 - Chocolate
TTITLE17=Union J - Carry You
TTITLE18=The Saturdays - Gentleman
TTITLE19=Charlie Brown - 20. On My Way
TTITLE20=Tom Odell - 21. Another Love
TTITLE21=Michael Bublé - It's a Beautiful Day
EXTD=
EXTT0=
EXTT1=
EXTT2=
EXTT3=
EXTT4=
EXTT5=
EXTT6=
EXTT7=
EXTT8=
EXTT9=
EXTT10=
EXTT11=
EXTT12=
EXTT13=
EXTT14=
EXTT15=
EXTT16=
EXTT17=
EXTT18=
EXTT19=
EXTT20=
EXTT21=
PLAYORDER=
